<?xml version="1.0" encoding="iso-8859-1"?>
<!-- Uploaded to: SVG Repo, www.svgrepo.com, Generator: SVG Repo Mixer Tools -->
<svg height="800px" width="800px" version="1.1" id="Layer_1" xmlns="http://www.w3.org/2000/svg" xmlns:xlink="http://www.w3.org/1999/xlink" 
	 viewBox="0 0 501.289 501.289" xml:space="preserve">
<g>
	<path style="fill:#FFD15C;" d="M39.457,22.894c60.604,12.539,106.58,66.873,106.58,131.657c0,39.706,15.673,77.322,43.886,105.535
		c17.763,17.763,38.661,30.302,60.604,36.571c-54.335,27.167-132.702,8.359-190.171-49.11
		C-6.519,179.629-20.102,82.454,31.098,31.254C34.232,28.119,36.322,26.029,39.457,22.894z"/>
	<path style="fill:#FFD15C;" d="M277.694,277.849c-3.135,3.135-5.225,5.224-8.359,7.314
		C207.686,273.67,161.71,219.335,161.71,154.551c0-39.706-15.673-77.322-43.886-105.535C101.106,31.254,80.208,19.76,57.22,12.445
		c54.335-27.167,132.702-8.359,190.171,49.11C315.31,129.474,328.894,226.649,277.694,277.849z"/>
</g>
<g>
	<path style="fill:#FF7058;" d="M186.788,474.29c71.053-14.629,125.388-77.322,125.388-153.6c0-47.02,17.763-89.861,51.2-123.298
		c19.853-19.853,44.931-34.482,71.053-42.841c-62.694-31.347-154.645-10.449-222.563,57.469
		c-79.412,79.412-95.086,193.306-35.527,252.865C179.473,468.021,182.608,471.156,186.788,474.29z"/>
	<path style="fill:#FF7058;" d="M464.73,176.494c-3.135-3.135-6.269-6.269-10.449-9.404
		c-71.053,14.629-125.388,77.322-125.388,153.6c0,47.02-17.763,89.861-51.2,123.298c-19.853,19.853-44.931,34.482-71.053,42.841
		c62.694,31.347,154.645,10.449,222.563-57.469C508.616,349.947,525.334,236.054,464.73,176.494z"/>
</g>
</svg>