<svg width="11" height="20" viewBox="0 0 11 20" fill="none" xmlns="http://www.w3.org/2000/svg">
<path d="M0.322617 10.652H2.51492V19.6774C2.51492 19.8556 2.6593 20 2.8375 20H6.55465C6.73285 20 6.87723 19.8556 6.87723 19.6774V10.6945H9.3975C9.56137 10.6945 9.69926 10.5716 9.71797 10.4088L10.1007 7.08609C10.1112 6.99469 10.0823 6.90313 10.0211 6.83453C9.95992 6.7659 9.8723 6.7266 9.78035 6.7266H6.87738V4.64375C6.87738 4.0159 7.21543 3.6975 7.8823 3.6975C7.97734 3.6975 9.78035 3.6975 9.78035 3.6975C9.95855 3.6975 10.1029 3.55305 10.1029 3.37492V0.324961C10.1029 0.146758 9.95855 0.00238281 9.78035 0.00238281H7.16453C7.14609 0.00148437 7.10512 0 7.04473 0C6.59086 0 5.01324 0.0891015 3.76703 1.23555C2.38625 2.50602 2.5782 4.02715 2.62406 4.2909V6.72652H0.322578C0.144375 6.72652 0 6.8709 0 7.0491V10.3294C3.90625e-05 10.5075 0.144414 10.652 0.322617 10.652Z" fill="#1E1E1E"/>
</svg>
