<svg width="20" height="20" viewBox="0 0 20 20" fill="none" xmlns="http://www.w3.org/2000/svg">
<path d="M14.0419 0H5.95811C2.67279 0 0 2.67279 0 5.95811V14.0419C0 17.3272 2.67279 20 5.95811 20H14.0419C17.3272 20 20 17.3272 20 14.0419V5.95811C20 2.67279 17.3272 0 14.0419 0ZM17.988 14.0419C17.988 16.2213 16.2213 17.988 14.0419 17.988H5.95811C3.77875 17.988 2.012 16.2213 2.012 14.0419V5.95811C2.012 3.77871 3.77875 2.012 5.95811 2.012H14.0419C16.2213 2.012 17.988 3.77871 17.988 5.95811V14.0419Z" fill="#1E1E1E"/>
<path d="M9.99974 4.82715C7.1475 4.82715 4.82703 7.14762 4.82703 9.99982C4.82703 12.852 7.1475 15.1725 9.99974 15.1725C12.852 15.1725 15.1725 12.8521 15.1725 9.99982C15.1725 7.14759 12.852 4.82715 9.99974 4.82715ZM9.99974 13.1606C8.25411 13.1606 6.83903 11.7455 6.83903 9.99986C6.83903 8.25423 8.25415 6.83915 9.99974 6.83915C11.7454 6.83915 13.1605 8.25423 13.1605 9.99986C13.1605 11.7455 11.7453 13.1606 9.99974 13.1606Z" fill="#1E1E1E"/>
<path d="M15.1791 6.10634C15.8637 6.10634 16.4186 5.55142 16.4186 4.86689C16.4186 4.18236 15.8637 3.62744 15.1791 3.62744C14.4946 3.62744 13.9397 4.18236 13.9397 4.86689C13.9397 5.55142 14.4946 6.10634 15.1791 6.10634Z" fill="#1E1E1E"/>
</svg>
