<svg width="25" height="20" viewBox="0 0 25 20" fill="none" xmlns="http://www.w3.org/2000/svg">
<path d="M23.6614 2.32662C23.1272 2.56351 22.5726 2.75039 22.0036 2.88569C22.6306 2.28986 23.102 1.54461 23.368 0.712776C23.4439 0.475301 23.186 0.269951 22.9716 0.3971C22.1799 0.866657 21.3272 1.21891 20.4371 1.44419C20.3854 1.45727 20.3321 1.46389 20.2787 1.46389C20.1165 1.46389 19.9589 1.40369 19.8349 1.29442C18.8878 0.459708 17.6697 0 16.4051 0C15.8579 0 15.3054 0.085294 14.7629 0.253537C13.0821 0.774856 11.7852 2.16131 11.3783 3.87188C11.2257 4.51349 11.1843 5.15568 11.2554 5.78059C11.2635 5.8524 11.2296 5.90252 11.2087 5.92603C11.1719 5.96724 11.1198 5.99086 11.0657 5.99086C11.0596 5.99086 11.0534 5.99057 11.0473 5.98998C7.36809 5.64816 4.05036 3.87563 1.70521 0.998965C1.58563 0.852236 1.3563 0.870233 1.26098 1.03373C0.801743 1.8216 0.559051 2.72272 0.559051 3.63968C0.559051 5.04495 1.12363 6.36926 2.10431 7.33469C1.69191 7.23691 1.29275 7.08292 0.921975 6.87698C0.742594 6.77732 0.521885 6.90541 0.519364 7.11059C0.493688 9.19821 1.71594 11.0558 3.54692 11.8923C3.51005 11.8931 3.47317 11.8936 3.43624 11.8936C3.14601 11.8936 2.85214 11.8655 2.5629 11.8103C2.36089 11.7717 2.19118 11.9633 2.25391 12.1592C2.84821 14.0146 4.44576 15.3822 6.35752 15.6927C4.77087 16.7578 2.92319 17.3197 1.00012 17.3197L0.400597 17.3193C0.215882 17.3193 0.0596559 17.4397 0.0125831 17.6186C-0.0337864 17.7948 0.0516248 17.9807 0.20914 18.0724C2.37613 19.3335 4.8479 20 7.3583 20C9.55572 20 11.6112 19.5639 13.4678 18.7039C15.1697 17.9155 16.6737 16.7885 17.9379 15.3543C19.1156 14.0182 20.0366 12.4758 20.6751 10.77C21.2837 9.14404 21.6054 7.40909 21.6054 5.75268V5.67378C21.6054 5.40781 21.7257 5.15756 21.9355 4.98721C22.7319 4.34061 23.4254 3.57947 23.9967 2.72495C24.1475 2.49932 23.9096 2.21653 23.6614 2.32662Z" fill="#CF700F"/>
</svg>
